<svg width="872" height="582" viewBox="0 0 872 582" fill="none" xmlns="http://www.w3.org/2000/svg">
<path d="M227.388 328.092C225.109 332.156 220.118 332.715 212.122 331.943C206.109 331.36 200.625 330.91 194.611 327.633C190.402 325.341 187.07 322.241 184.638 319.229C182.003 315.966 178.324 312.243 180.127 308.543C182.606 303.461 196.935 299.181 210.851 306.18C226.137 313.871 229.617 324.119 227.388 328.092Z" fill="#F9FAFB"/>
<path d="M684.298 301.281C674.98 308.226 660.194 304.173 660.194 304.173C660.194 304.173 660.523 288.862 669.846 281.923C679.164 274.978 693.943 279.025 693.943 279.025C693.943 279.025 693.615 294.336 684.298 301.281V301.281Z" fill="#F9FAFB"/>
<path d="M209.397 169.342C218.254 179.587 236.102 178.69 236.102 178.69C236.102 178.69 239.579 161.182 230.713 150.942C221.856 140.697 204.017 141.589 204.017 141.589C204.017 141.589 200.541 159.097 209.397 169.342Z" fill="#F9FAFB"/>
<path d="M426.203 495.102C421.982 495.102 418.56 491.682 418.56 487.463C418.56 483.245 421.982 479.825 426.203 479.825C430.424 479.825 433.845 483.245 433.845 487.463C433.845 491.682 430.424 495.102 426.203 495.102Z" fill="#E5E7EB"/>
<path d="M492.846 432.708C488.206 432.708 484.444 428.949 484.444 424.311C484.444 419.674 488.206 415.915 492.846 415.915C497.485 415.915 501.247 419.674 501.247 424.311C501.247 428.949 497.485 432.708 492.846 432.708Z" fill="#E5E7EB"/>
<path d="M657.875 175.421C654.13 175.421 651.093 172.386 651.093 168.643C651.093 164.899 654.13 161.864 657.875 161.864C661.621 161.864 664.658 164.899 664.658 168.643C664.658 172.386 661.621 175.421 657.875 175.421Z" fill="#E5E7EB"/>
<path d="M185.994 204.201C187.192 208.673 184.537 213.27 180.063 214.468C175.588 215.666 170.989 213.013 169.79 208.541C168.591 204.069 171.246 199.472 175.721 198.274C180.195 197.075 184.795 199.729 185.994 204.201Z" fill="#E5E7EB"/>
<path d="M311.514 132.226C305.351 132.226 300.355 127.233 300.355 121.074C300.355 114.915 305.351 109.922 311.514 109.922C317.677 109.922 322.673 114.915 322.673 121.074C322.673 127.233 317.677 132.226 311.514 132.226Z" fill="#E5E7EB"/>
<path d="M721.294 397.218C716.554 397.218 712.711 394.146 712.711 390.356C712.711 386.566 716.554 383.493 721.294 383.493C726.035 383.493 729.877 386.566 729.877 390.356C729.877 394.146 726.035 397.218 721.294 397.218Z" fill="#E5E7EB"/>
<path d="M226.187 457.287C226.187 464.092 220.667 469.609 213.858 469.609C207.049 469.609 201.529 464.092 201.529 457.287C201.529 450.482 207.049 444.965 213.858 444.965C220.667 444.965 226.187 450.482 226.187 457.287Z" fill="#E5E7EB"/>
<path d="M639.004 380.07H639.228C640.558 398.9 654.569 399.19 654.569 399.19C654.569 399.19 639.119 399.491 639.119 421.248C639.119 399.491 623.669 399.19 623.669 399.19C623.669 399.19 637.674 398.9 639.004 380.07V380.07Z" fill="#E5E7EB"/>
<path d="M414.31 336.114H559.894M299.922 460.825H591.089C614.061 460.825 632.684 442.213 632.684 419.254V128.253C632.684 105.294 614.061 86.6816 591.089 86.6816H383.112C360.14 86.6816 341.517 105.294 341.517 128.253V419.254C341.517 442.213 322.894 460.825 299.922 460.825C276.948 460.825 258.326 442.213 258.326 419.254V190.611C258.326 167.651 276.948 149.039 299.922 149.039H341.517L299.922 460.825ZM414.31 169.826H559.894H414.31ZM414.31 252.969H559.894H414.31Z" stroke="#E5E7EB" stroke-width="4" stroke-linecap="round" stroke-linejoin="round"/>
<path fill-rule="evenodd" clip-rule="evenodd" d="M263.221 302.178C263.221 350.399 302.331 389.487 350.58 389.487C398.828 389.487 437.938 350.399 437.938 302.178C437.938 253.958 398.828 214.869 350.58 214.869C302.331 214.869 263.221 253.958 263.221 302.178Z" fill="#F9FAFB" stroke="#1AA845" stroke-width="20.082" stroke-linecap="round" stroke-linejoin="round"/>
<path d="M244.16 408.536L281.486 371.23" stroke="#1AA845" stroke-width="20.082" stroke-linecap="round" stroke-linejoin="round"/>
<path fill-rule="evenodd" clip-rule="evenodd" d="M524.169 407.886V367.633C524.17 360.979 525.916 354.442 529.235 348.674C532.553 342.905 537.327 338.108 543.081 334.76L581.14 312.622C586.953 309.242 593.559 307.462 600.284 307.462C607.009 307.462 613.615 309.242 619.428 312.622L657.487 334.76C663.242 338.106 668.019 342.903 671.339 348.672C674.658 354.44 676.406 360.978 676.407 367.633V407.886C676.406 414.539 674.659 421.076 671.341 426.844C668.023 432.613 663.249 437.41 657.496 440.759L619.436 462.897C613.623 466.276 607.017 468.057 600.292 468.057C593.567 468.057 586.962 466.276 581.148 462.897L543.088 440.759C537.333 437.412 532.557 432.615 529.237 426.847C525.917 421.078 524.17 414.54 524.169 407.886Z" fill="#1AA845"/>
<path d="M600.288 387.76V349.722V387.76ZM600.279 417.344C600.002 417.344 599.727 417.398 599.471 417.505C599.214 417.611 598.982 417.767 598.786 417.963C598.59 418.16 598.435 418.393 598.33 418.649C598.225 418.906 598.172 419.181 598.174 419.458C598.174 419.877 598.298 420.286 598.531 420.634C598.764 420.981 599.095 421.252 599.482 421.412C599.869 421.572 600.294 421.613 600.705 421.531C601.116 421.448 601.492 421.246 601.788 420.949C602.083 420.653 602.284 420.275 602.364 419.865C602.445 419.454 602.402 419.029 602.24 418.642C602.078 418.256 601.806 417.927 601.457 417.696C601.108 417.465 600.698 417.342 600.279 417.344Z" stroke="#F9FAFB" stroke-width="13.094" stroke-linecap="round" stroke-linejoin="round"/>
</svg>
