<svg width="80" height="80" viewBox="0 0 80 80" fill="none" xmlns="http://www.w3.org/2000/svg">
<path d="M74.6317 5.97802C74.6032 5.83983 74.5358 5.71264 74.4376 5.61135C74.3393 5.51006 74.2143 5.43888 74.077 5.40615C64.9254 3.16865 43.7801 11.1421 32.3239 22.5937C30.2806 24.6205 28.4178 26.8215 26.7567 29.1718C23.2239 28.8593 19.6911 29.1202 16.6801 30.4327C8.18482 34.1718 5.71138 43.928 5.02232 48.1249C4.98323 48.3546 4.99798 48.5903 5.06539 48.8133C5.1328 49.0364 5.25104 49.2407 5.41081 49.4103C5.57058 49.58 5.76752 49.7102 5.98615 49.7908C6.20477 49.8714 6.43912 49.9002 6.67075 49.8749L20.3129 48.3702C20.3227 49.3987 20.3847 50.4261 20.4989 51.4483C20.5675 52.1582 20.8826 52.8216 21.3895 53.3233L26.6723 58.5937C27.1745 59.0999 27.8377 59.4149 28.5473 59.4843C29.5638 59.598 30.5855 59.66 31.6083 59.6702L30.1114 73.2952C30.0864 73.5268 30.1154 73.761 30.1961 73.9794C30.2769 74.1979 30.4071 74.3947 30.5766 74.5544C30.7462 74.7141 30.9504 74.8324 31.1733 74.8999C31.3962 74.9674 31.6317 74.9824 31.8614 74.9436C36.0504 74.2718 45.8239 71.7983 49.5411 63.303C50.8536 60.2921 51.1223 56.7765 50.8192 53.2608C53.1752 51.5996 55.382 49.7363 57.4145 47.6921C68.9067 36.2577 76.8348 15.5843 74.6317 5.97802ZM45.9489 34.0515C44.8995 33.0028 44.1847 31.6664 43.8949 30.2114C43.6051 28.7564 43.7534 27.2482 44.3209 25.8774C44.8884 24.5067 45.8497 23.3351 47.0832 22.5107C48.3166 21.6864 49.7669 21.2464 51.2504 21.2464C52.734 21.2464 54.1843 21.6864 55.4177 22.5107C56.6512 23.3351 57.6125 24.5067 58.18 25.8774C58.7475 27.2482 58.8958 28.7564 58.606 30.2114C58.3162 31.6664 57.6014 33.0028 56.552 34.0515C55.8562 34.7483 55.0297 35.3011 54.1201 35.6783C53.2104 36.0555 52.2352 36.2497 51.2504 36.2497C50.2657 36.2497 49.2905 36.0555 48.3808 35.6783C47.4711 35.3011 46.6447 34.7483 45.9489 34.0515Z" fill="#1E1E1E"/>
<path d="M26.3125 62.4109C25.4562 63.2688 24.0828 63.6031 22.4297 63.8891C18.7156 64.5219 15.4359 61.3125 16.1031 57.5578C16.3578 56.1344 17.1109 54.1391 17.5797 53.6703C17.6821 53.5698 17.7503 53.4396 17.7746 53.2982C17.7988 53.1568 17.7779 53.0113 17.7148 52.8824C17.6516 52.7535 17.5495 52.6478 17.4229 52.5803C17.2962 52.5128 17.1516 52.4869 17.0094 52.5063C14.9324 52.7604 13.0002 53.702 11.5203 55.1813C7.84688 58.8578 7.5 72.5 7.5 72.5C7.5 72.5 21.15 72.1531 24.8234 68.4766C26.3073 66.9979 27.2501 65.0627 27.5 62.9828C27.5578 62.3297 26.7625 61.9406 26.3125 62.4109Z" fill="#1E1E1E"/>
</svg>
