<svg width="571" height="420" viewBox="0 0 571 420" fill="none" xmlns="http://www.w3.org/2000/svg">
<path d="M89.9566 187.148C83.1234 242.881 104.848 289.118 138.049 329.186C150.343 344.033 161.203 362.612 176.602 374.656C199.787 392.792 229.57 401.733 260.647 405.544C291.725 409.354 321.653 412.096 348.431 405.285C369.647 399.876 388.666 387.328 406.371 372.673C425.725 356.649 440.029 332.672 452.935 307.364C464.848 283.99 475.997 259.697 479.043 234.853C481.645 213.632 480.946 192.217 476.031 172.644C470.635 151.087 460.373 131.573 449.26 112.761C432.842 84.9561 408.179 65.2281 381.328 47.9823C359.298 33.8161 336.69 19.9316 308.352 16.4571C276.451 12.5458 243.993 10.7122 215.852 18.7775C195.26 24.6854 177.701 37.3325 160.819 51.1104C141.505 66.8873 127.948 90.5231 115.659 114.828C103.919 138.022 93.0842 161.639 89.9566 187.148Z" fill="#ECFDF0"/>
<g opacity="0.4">
<path d="M358.924 186.34C368.864 186.34 376.924 194.32 376.924 204.17C376.924 214.02 368.864 222 358.924 222C353.504 222 335.374 222 329.154 222C315.774 222 304.924 211.25 304.924 198C304.924 184.75 315.774 174 329.154 174C338.954 174 347.394 179.76 351.214 188.06C353.554 186.96 356.164 186.34 358.924 186.34Z" fill="#23DD52"/>
</g>
<g opacity="0.4">
<path d="M304.9 101C299.52 101 295.16 96.65 295.16 91.29C295.16 85.92 299.52 81.57 304.9 81.57C305.96 81.57 306.98 81.74 307.94 82.05C308.91 73.58 316.12 67 324.88 67C334.3 67 341.93 74.61 341.93 84C341.93 84.06 341.93 84.11 341.93 84.17C342.48 84.06 343.05 84 343.63 84C348.34 84 352.16 87.81 352.16 92.5C352.16 97.19 348.34 101 343.63 101C340.46 101 308.41 101 304.9 101Z" fill="#23DD52"/>
</g>
<g opacity="0.4">
<path d="M190.022 303C185.592 303 182.002 299.34 182.002 294.83C182.002 290.32 185.592 286.66 190.022 286.66C191.632 286.66 193.142 287.14 194.392 287.98C194.482 279.85 200.982 273.29 208.972 273.29C211.652 273.29 214.162 274.02 216.322 275.3C217.172 261.74 228.252 251 241.782 251C251.372 251 259.722 256.39 264.082 264.36C267.152 262.48 270.752 261.4 274.592 261.4C285.862 261.4 295.002 270.71 295.002 282.2C295.002 293.69 285.862 303 274.592 303C268.482 303 193.552 303 190.022 303Z" fill="#23DD52"/>
</g>
<path d="M96.5 226.24V157.76L44.34 226.24H96.5ZM0.5 268.48V217.28L86.9 104H147.06V226.24H180.34V268.48H147.06V311.68H96.5V268.48H0.5Z" fill="#1CB63E"/>
<path d="M486.64 226.24V157.76L434.48 226.24H486.64ZM390.64 268.48V217.28L477.04 104H537.2V226.24H570.48V268.48H537.2V311.68H486.64V268.48H390.64Z" fill="#1CB63E"/>
<path d="M296.92 330.435L295.267 330.47C295.2 330.472 295.143 330.511 295.097 330.569L291.814 335.305C291.777 335.363 291.72 335.403 291.653 335.404C291.596 335.405 291.528 335.368 291.489 335.312L289.207 332.321C289.167 332.264 289.109 332.237 289.042 332.238L287.771 332.265C287.714 332.267 287.657 332.296 287.611 332.355L286.619 333.82C286.591 333.858 286.583 333.906 286.603 333.954C286.623 333.992 286.662 334.019 286.7 334.019L287.608 333.999L288.496 333.98L291.501 338.113C291.54 338.169 291.598 338.197 291.665 338.195L291.761 338.193C291.818 338.192 291.884 338.162 291.921 338.104L297.01 330.653C297.038 330.614 297.047 330.556 297.026 330.509C297.006 330.462 296.967 330.434 296.92 330.435ZM288.086 334.448L287.56 334.459L287.677 339.935C287.681 340.078 287.788 340.19 287.922 340.188L289.355 340.157C289.489 340.154 289.592 340.037 289.589 339.894L289.511 336.272L288.086 334.448ZM294.298 336.571L294.367 339.82C294.37 339.944 294.477 340.047 294.611 340.044L296.044 340.014C296.178 340.011 296.281 339.903 296.278 339.779L296.161 334.275L294.298 336.571Z" fill="#6979A8"/>
<path d="M272.335 318.201C271.866 318.211 271.412 317.953 271.192 317.508L214.896 200.701C214.596 200.086 214.857 199.344 215.463 199.054C216.078 198.754 216.82 199.015 217.11 199.631L273.415 316.438C273.706 317.043 273.454 317.785 272.839 318.085C272.678 318.155 272.497 318.197 272.335 318.201Z" fill="#6A79A8"/>
<path d="M289.187 243.494C280.061 243.689 271.035 242.305 262.539 239.332C249.747 234.854 238.342 227.287 229.566 217.446C227.959 215.636 226.408 213.728 224.951 211.78C224.548 211.234 224.655 210.467 225.201 210.054C225.747 209.65 226.524 209.758 226.927 210.304C228.335 212.195 229.847 214.046 231.404 215.801C239.907 225.332 250.953 232.658 263.359 237C279.975 242.821 298.703 242.343 316.094 235.671C332.878 229.231 347.361 217.564 356.873 202.838C357.244 202.266 358.005 202.097 358.577 202.467C359.149 202.837 359.318 203.598 358.948 204.17C349.148 219.342 334.252 231.344 316.975 237.975C307.919 241.448 298.504 243.294 289.187 243.494Z" fill="#6A79A8"/>
<path d="M301.753 347.584L282.202 348.002C278.112 348.09 274.616 345.096 274.079 341.034L271.115 318.669C271.024 318.002 271.498 317.38 272.175 317.289C272.843 317.198 273.465 317.673 273.556 318.35L276.52 340.705C276.896 343.527 279.311 345.597 282.149 345.537L301.7 345.118C304.309 345.062 306.417 343.067 306.62 340.472L308.488 316.072C308.495 315.938 308.53 315.813 308.585 315.688L356.776 203.021C357.04 202.394 357.77 202.101 358.397 202.374C359.015 202.638 359.307 203.359 359.043 203.986L310.925 316.469L309.081 340.658C308.781 344.527 305.633 347.501 301.753 347.584Z" fill="#6A79A8"/>
<path d="M291.252 327.667C280.071 327.907 271.219 323.899 271.104 318.538C270.989 313.177 279.662 308.795 290.843 308.556C291.521 308.541 292.087 309.083 292.102 309.762C292.116 310.44 291.574 311.006 290.895 311.021C282.63 311.198 273.48 314.31 273.569 318.486C273.659 322.662 282.933 325.379 291.199 325.202C299.465 325.025 308.605 321.914 308.515 317.738C308.472 315.693 305.837 313.627 301.631 312.35C300.977 312.153 300.609 311.463 300.805 310.809C301.001 310.155 301.691 309.796 302.346 309.992C307.763 311.635 310.911 314.445 310.981 317.685C311.096 323.046 302.432 327.428 291.252 327.667Z" fill="#6A79A8"/>
<path d="M285.681 311.13C285.098 311.142 284.573 310.733 284.445 310.143L271.688 245.655C271.559 244.988 271.995 244.338 272.661 244.209C273.318 244.08 273.977 244.506 274.107 245.182L286.863 309.661C287.002 310.327 286.566 310.977 285.9 311.106C285.824 311.127 285.757 311.128 285.681 311.13Z" fill="#6A79A8"/>
<path d="M294.498 327.471C294.45 327.472 294.402 327.463 294.354 327.465C293.674 327.403 293.183 326.801 293.245 326.121L300.833 244.677C300.895 243.997 301.496 243.506 302.176 243.568C302.856 243.63 303.347 244.231 303.285 244.911L295.697 326.346C295.635 326.978 295.119 327.458 294.498 327.471Z" fill="#6A79A8"/>
<path d="M367.831 166.005C370.249 220.026 311.531 261.618 260.922 243.896C248.506 239.554 237.22 232.176 228.453 222.344C209.871 201.489 202.231 171.509 211.074 144.685C228.051 93.2123 296.586 67.644 339.23 104.934C356.873 120.35 366.816 143.111 367.831 166.005Z" fill="#06A12A"/>
<g opacity="0.3">
<path d="M284.052 234.748C275.548 234.93 268.501 228.178 268.319 219.673C268.136 211.159 274.888 204.112 283.393 203.93C304.339 203.482 321.022 186.059 320.574 165.103C320.501 161.73 319.99 158.395 319.052 155.203C316.669 147.032 321.352 138.471 329.513 136.078C337.683 133.685 346.235 138.368 348.628 146.539C350.32 152.335 351.252 158.357 351.382 164.444C352.194 202.4 321.989 233.936 284.052 234.748Z" fill="#1F41B3"/>
</g>
<path d="M260.859 109.842C259.875 109.863 258.935 109.3 258.532 108.333C258.008 107.083 258.589 105.636 259.849 105.102C263.516 103.552 267.361 102.313 271.271 101.416C272.603 101.12 273.921 101.943 274.227 103.275C274.533 104.607 273.7 105.925 272.369 106.23C268.734 107.063 265.164 108.21 261.763 109.65C261.469 109.771 261.165 109.835 260.859 109.842Z" fill="#1CB63E"/>
<path d="M228.419 201.394C227.52 201.414 226.64 200.935 226.182 200.085C223.382 194.791 221.273 189.128 219.933 183.239C213.962 157.095 223.902 129.741 245.267 113.538C246.349 112.712 247.893 112.927 248.719 114.019C249.536 115.101 249.33 116.644 248.238 117.471C228.417 132.503 219.199 157.882 224.737 182.133C225.982 187.603 227.94 192.867 230.54 197.773C231.178 198.974 230.722 200.466 229.521 201.103C229.162 201.292 228.791 201.386 228.419 201.394Z" fill="#1CB63E"/>
</svg>
