<svg width="70" height="70" viewBox="0 0 70 70" fill="none" xmlns="http://www.w3.org/2000/svg">
<path d="M12.25 9.625C12.25 8.92881 11.9734 8.26113 11.4812 7.76884C10.9889 7.27656 10.3212 7 9.625 7C8.92881 7 8.26113 7.27656 7.76884 7.76884C7.27656 8.26113 7 8.92881 7 9.625V60.375C7 61.0712 7.27656 61.7389 7.76884 62.2312C8.26113 62.7234 8.92881 63 9.625 63C10.3212 63 10.9889 62.7234 11.4812 62.2312C11.9734 61.7389 12.25 61.0712 12.25 60.375V45.003L18.0495 43.785C23.1145 42.7186 28.3921 43.4254 32.998 45.787C39.452 49.0967 46.9434 49.7548 53.8755 47.621L61.1485 45.381C61.6843 45.2158 62.1531 44.8834 62.4863 44.4324C62.8194 43.9815 62.9995 43.4357 63 42.875V13.125C63 12.7345 62.9129 12.349 62.745 11.9965C62.5771 11.644 62.3327 11.3333 62.0296 11.0872C61.7265 10.8411 61.3723 10.6657 60.9928 10.5738C60.6133 10.4819 60.2181 10.4758 59.836 10.556L51.506 12.3095C46.604 13.3415 41.5062 12.8994 36.855 11.039L35.098 10.339C29.4838 8.09199 23.3301 7.55736 17.4125 8.8025L12.25 9.8875V9.625Z" fill="black"/>
</svg>
