<svg width="16" height="16" viewBox="0 0 16 16" fill="none" xmlns="http://www.w3.org/2000/svg">
<path d="M12.667 4.66671H10.667V4.00004C10.667 3.2928 10.386 2.61452 9.88594 2.11442C9.38585 1.61433 8.70757 1.33337 8.00033 1.33337C7.29308 1.33337 6.6148 1.61433 6.11471 2.11442C5.61461 2.61452 5.33366 3.2928 5.33366 4.00004V4.66671H3.33366C3.15685 4.66671 2.98728 4.73695 2.86225 4.86197C2.73723 4.98699 2.66699 5.15656 2.66699 5.33337V12.6667C2.66699 13.1971 2.87771 13.7058 3.25278 14.0809C3.62785 14.456 4.13656 14.6667 4.66699 14.6667H11.3337C11.8641 14.6667 12.3728 14.456 12.7479 14.0809C13.1229 13.7058 13.3337 13.1971 13.3337 12.6667V5.33337C13.3337 5.15656 13.2634 4.98699 13.1384 4.86197C13.0134 4.73695 12.8438 4.66671 12.667 4.66671ZM6.66699 4.00004C6.66699 3.64642 6.80747 3.30728 7.05752 3.05723C7.30756 2.80718 7.6467 2.66671 8.00033 2.66671C8.35395 2.66671 8.69309 2.80718 8.94313 3.05723C9.19318 3.30728 9.33366 3.64642 9.33366 4.00004V4.66671H6.66699V4.00004ZM12.0003 12.6667C12.0003 12.8435 11.9301 13.0131 11.8051 13.1381C11.68 13.2631 11.5105 13.3334 11.3337 13.3334H4.66699C4.49018 13.3334 4.32061 13.2631 4.19559 13.1381C4.07056 13.0131 4.00033 12.8435 4.00033 12.6667V6.00004H5.33366V6.66671C5.33366 6.84352 5.4039 7.01309 5.52892 7.13811C5.65395 7.26314 5.82351 7.33337 6.00033 7.33337C6.17714 7.33337 6.34671 7.26314 6.47173 7.13811C6.59675 7.01309 6.66699 6.84352 6.66699 6.66671V6.00004H9.33366V6.66671C9.33366 6.84352 9.4039 7.01309 9.52892 7.13811C9.65394 7.26314 9.82351 7.33337 10.0003 7.33337C10.1771 7.33337 10.3467 7.26314 10.4717 7.13811C10.5968 7.01309 10.667 6.84352 10.667 6.66671V6.00004H12.0003V12.6667Z" fill="#1E1E1E"/>
</svg>
