<svg width="232" height="125" viewBox="0 0 232 125" fill="none" xmlns="http://www.w3.org/2000/svg">
<path d="M231.964 96.0108C228.253 115.151 223.677 119.044 221.121 121.049C220.926 121.764 218.881 121.308 212.793 121.434C176.155 121.434 24.6395 121.457 24.5844 121.457C24.5898 121.461 14.7083 111.232 12.8512 96.1047C12.6529 71.8941 31.4911 71.7137 55.666 57.2389C69.2878 49.426 76.4838 24.0333 89.2783 11.8029C101.036 0.793904 124.389 -6.79485 146.579 9.05459C163.956 17.672 164.95 49.519 188.816 59.2028C218.785 70.2433 232.799 78.397 231.964 96.0108Z" fill="url(#paint0_linear_3328_5034)"/>
<mask id="mask0_3328_5034" style="mask-type:luminance" maskUnits="userSpaceOnUse" x="12" y="0" width="220" height="122">
<path d="M231.91 95.9821C228.198 115.123 223.606 119.033 221.05 121.037C220.854 121.753 218.809 121.296 212.722 121.422C176.083 121.422 24.5665 121.445 24.5114 121.445C24.5168 121.45 14.6416 111.222 12.7845 96.1011C12.5728 71.875 31.3958 71.6688 55.5834 57.2312C69.2163 49.4344 76.447 24.097 89.2253 11.8528C100.962 0.838907 124.273 -6.75641 146.448 9.04482C163.857 17.6503 164.859 49.4432 188.714 59.1424C218.685 70.2149 232.752 78.3626 231.91 95.9821Z" fill="white"/>
</mask>
<g mask="url(#mask0_3328_5034)">
<path d="M178.027 -17.3944C221.288 23.2582 248.341 64.1021 212.026 83.4806C126.279 129.239 146.595 144.474 146.595 144.474C146.595 144.474 154.038 154.855 167.184 139.815C180.33 124.775 188.162 120.939 231.417 109.861C274.672 98.782 271.192 46.6325 271.192 46.6325M130.55 152.321C130.55 152.321 137.316 106.874 81.8325 106.384C26.349 105.893 -5.35584 103.605 -14.6353 72.3803C-23.9148 41.156 30.4165 55.2879 80.4831 76.8307C130.55 98.3733 187.193 79.5733 173.854 19.5769C160.515 -40.4196 84.249 -47.5309 91.9819 -25.6248C99.7148 -3.71875 177.237 37.1508 141.219 66.1269C107.204 93.4919 -30.1978 -25.6248 -30.1978 -25.6248" stroke="white" stroke-width="7" stroke-miterlimit="10"/>
<path d="M130.55 152.321C130.55 152.321 137.316 106.874 81.8325 106.384C26.349 105.893 -5.35584 103.605 -14.6353 72.3803C-23.9148 41.156 30.4165 55.2879 80.4831 76.8307C130.55 98.3733 187.193 79.5733 173.854 19.5769C160.515 -40.4196 84.2491 -47.5309 91.9819 -25.6248C99.7148 -3.71875 177.237 37.1508 141.219 66.1269C107.204 93.4919 -30.1978 -25.6248 -30.1978 -25.6248" stroke="white" stroke-width="7" stroke-miterlimit="10"/>
</g>
<path d="M3.87926 73.8635C0.362944 77.8877 -2.42581 97.9198 13.6877 100.758C13.6877 100.758 20.1997 102.01 21.7919 108.722C23.3844 115.434 34.8723 126.353 47.3799 119.834C59.8874 113.315 53.6299 98.6855 47.5226 94.2391C41.4153 89.7926 42.2777 89.659 38.9273 84.9591C35.5768 80.2594 35.2383 79.964 32.1212 81.0849C29.0038 82.2059 31.9774 88.6457 35.3501 92.1821C38.7227 95.7187 35.2396 97.998 33.8749 97.3977C32.5104 96.7973 31.2343 91.544 24.018 91.1547C16.8016 90.7651 15.8969 84.0629 15.281 80.2731C15.0323 78.7416 14.4159 77.3245 13.7701 76.1786C13.4041 76.4793 12.9355 76.658 12.4259 76.651C11.2864 76.6355 10.3802 75.6996 10.4018 74.5607C10.414 73.918 10.7197 73.3479 11.1884 72.976C10.4912 72.5556 9.26439 71.963 7.86235 71.9437C6.59059 71.9263 5.17509 72.3806 3.87926 73.8635Z" fill="url(#paint1_linear_3328_5034)"/>
<g style="mix-blend-mode:overlay" opacity="0.34">
<path d="M49.9259 118.2C49.1932 116.949 48.3165 115.77 47.1645 114.59C45.0837 111.133 44.6297 107.869 44.1878 104.686C43.6421 100.757 43.1268 97.0452 39.73 93.2267C34.631 87.4947 33.8646 82.7112 33.8148 80.5865C33.5989 80.6228 33.3671 80.6797 33.1159 80.7534C33.1835 83.0338 34.0435 87.8024 39.1803 93.5766C42.4653 97.2691 42.9701 100.905 43.5046 104.754C43.8825 107.476 44.2683 110.256 45.6449 113.171C41.823 109.897 35.5232 106.381 23.9893 101.077C12.6636 95.8692 8.51477 87.95 7.02867 82.2241C5.89531 77.8581 6.09229 74.0686 6.31446 72.177C6.07398 72.2555 5.83233 72.3549 5.59095 72.4807C5.38508 74.5109 5.27423 78.1639 6.35076 82.3264C7.86443 88.1781 12.0964 96.2702 23.6603 101.588C36.8069 107.633 43.068 111.382 46.548 114.853C47.2807 116.068 48.2097 117.309 49.4049 118.58L49.41 118.577C49.4118 118.58 49.4135 118.584 49.4154 118.587C49.5914 118.461 49.7628 118.333 49.9287 118.203L49.9259 118.2Z" fill="black"/>
</g>
<path d="M7.51745 72.7865C2.2803 76.8328 9.32865 84.1876 15.765 87.5255C22.2016 90.8636 25.2354 93.7737 27.0045 108.169C28.7736 122.563 42.1244 121.419 45.1761 120.686C48.2275 119.952 53.973 113.029 50.6965 103.62C47.4199 94.2108 40.8023 94.2606 42.3937 83.2875C43.9852 72.3144 34.8097 76.0123 31.8794 79.9955C28.9491 83.9787 26.618 83.3916 22.6034 78.9469C21.3083 77.513 20.2916 76.4187 19.5065 75.5916C19.4173 76.0921 19.2826 76.5631 19.0653 76.9614C18.9196 77.2286 18.6808 77.4346 18.3964 77.5647C17.9823 77.7539 17.4714 77.7821 17.0114 77.6029C16.2348 77.3006 15.8954 76.5233 16.2536 75.8668C16.5233 75.3722 16.5684 74.0963 16.598 73.2523C16.6038 73.0838 16.6097 72.9257 16.6163 72.7746C15.647 72.0352 13.6195 70.8193 11.114 71.1776C9.99342 71.3378 8.77759 71.813 7.51745 72.7865Z" fill="url(#paint2_linear_3328_5034)"/>
<g style="mix-blend-mode:overlay" opacity="0.34">
<path d="M36.8896 76.3909C35.6572 80.3723 32.436 93.0325 36.8246 105.126C35.8128 103.355 34.7896 101.372 33.7817 99.1556C27.0261 84.3021 10.464 75.7728 6.45127 73.883C6.33199 74.0519 6.22377 74.2232 6.13436 74.3993C10.101 76.2683 26.4701 84.7008 33.139 99.3648C38.7529 111.708 44.7798 117.032 47.7538 119.062C47.9028 118.918 48.0509 118.765 48.1984 118.604C47.3146 117.996 46.1397 117.081 44.7741 115.749C43.2903 114.302 41.4265 112.202 39.4165 109.271C32.1194 95.7786 36.4354 80.0111 37.6712 76.1685C37.4124 76.2272 37.1512 76.3021 36.8896 76.3909Z" fill="black"/>
</g>
<path d="M41.1185 116.771L40.0402 117.209L19.8218 81.4952L31.7521 62.6562L32.8057 63.1335L21.1617 81.5209L41.1185 116.771Z" fill="#48466D"/>
<path d="M19.078 82.2896C19.5861 82.9496 20.6306 83.1363 21.4108 82.7067C22.1913 82.277 22.4118 81.3937 21.9038 80.7337C21.3956 80.0739 20.3512 79.8874 19.5708 80.3172C18.7905 80.7468 18.57 81.6298 19.078 82.2896Z" fill="#2D3092"/>
<path d="M30.6669 63.7859C31.175 64.4457 32.2193 64.6325 32.9996 64.2029C33.78 63.7731 34.0008 62.89 33.4925 62.23C32.9845 61.5702 31.9398 61.3835 31.1595 61.8131C30.3793 62.2429 30.1589 63.126 30.6669 63.7859Z" fill="#2D3092"/>
<path d="M42.9131 61.8605L37.1842 70.6579L32.6036 67.6323L31.2326 66.7255C30.4148 66.1845 30.1821 65.2216 30.6836 64.4526L33.2412 60.5306C33.7423 59.7621 34.8292 59.4145 35.8062 59.7104L37.445 60.2064L42.9131 61.8605Z" fill="#2E2E2E"/>
<path d="M42.9145 61.8631L37.1856 70.6604L32.605 67.6349L37.4464 60.209L42.9145 61.8631Z" fill="#0000C6" fill-opacity="0.2"/>
<path d="M54.091 64.8083L46.0991 77.0752C45.5775 77.876 44.3275 78.0838 43.4861 77.5098L36.9379 73.042C34.9624 71.694 34.4153 69.3415 35.6404 67.4613L38.8928 62.4687C40.1179 60.5885 42.7616 59.7227 45.1648 60.4145L53.1291 62.7084C54.1523 63.003 54.6126 64.0077 54.091 64.8083Z" fill="#48466D"/>
<path d="M50.6142 120.306H30.1685C30.8973 117.151 34.1662 114.875 37.9675 114.875H42.8152C46.6163 114.875 49.8854 117.151 50.6142 120.306Z" fill="url(#paint3_linear_3328_5034)"/>
<path d="M204.656 103.014L202.979 120.839H191.383L189.707 103.014H204.656Z" fill="url(#paint4_linear_3328_5034)"/>
<path d="M190.129 107.529L191.049 117.315H203.314L204.234 107.532L190.129 107.529Z" fill="url(#paint5_linear_3328_5034)"/>
<path d="M192.962 112.461C192.962 114.345 194.764 115.872 196.988 115.872C199.211 115.872 201.014 114.345 201.014 112.461C201.014 110.578 199.211 109.051 196.988 109.051C194.764 109.051 192.962 110.578 192.962 112.461Z" fill="url(#paint6_linear_3328_5034)"/>
<g style="mix-blend-mode:overlay" opacity="0.66">
<path d="M196.323 113.03C196.6 112.796 196.667 112.633 196.745 112.445C196.832 112.233 196.931 111.993 197.295 111.685C197.66 111.377 197.944 111.293 198.194 111.219C198.357 111.171 198.505 111.127 198.68 111.016C198.308 110.728 197.792 110.605 197.221 110.669C196.649 110.733 196.085 110.979 195.632 111.362C195.179 111.745 194.888 112.222 194.813 112.705C194.757 113.059 194.82 113.386 194.991 113.66C195.237 113.503 195.443 113.442 195.631 113.386C195.855 113.32 196.047 113.264 196.323 113.03Z" fill="#E3EBF7"/>
<path d="M198.372 111.653C198.149 111.719 197.956 111.776 197.68 112.009C197.403 112.243 197.336 112.406 197.258 112.594C197.171 112.806 197.072 113.046 196.708 113.354C196.343 113.662 196.06 113.746 195.809 113.82C195.646 113.868 195.498 113.912 195.323 114.023C195.631 114.261 196.037 114.387 196.491 114.387C196.587 114.387 196.684 114.381 196.782 114.37C197.354 114.306 197.918 114.06 198.371 113.677C198.824 113.295 199.115 112.818 199.191 112.334C199.246 111.981 199.183 111.653 199.012 111.379C198.767 111.536 198.56 111.597 198.372 111.653Z" fill="#E3EBF7"/>
</g>
<path d="M205.169 104.275H188.939C188.714 104.275 188.532 104.12 188.532 103.93V102.02C188.532 101.83 188.714 101.676 188.939 101.676H205.169C205.394 101.676 205.577 101.83 205.577 102.02V103.93C205.577 104.12 205.394 104.275 205.169 104.275Z" fill="#63618B"/>
<path d="M204.409 101.672H189.701L190.402 99.8373C190.496 99.5898 190.769 99.4219 191.077 99.4219H203.033C203.341 99.4219 203.614 99.5898 203.708 99.8373L204.409 101.672Z" fill="#F8EDE0"/>
<path d="M198.854 100.415H195.556C195.234 100.415 194.974 100.195 194.974 99.9231V99.4219H199.436V99.9231C199.436 100.195 199.175 100.415 198.854 100.415Z" fill="#E7CCAC"/>
<path d="M202.134 84.9375C203.26 86.6183 203.065 89.3709 201.979 90.8973C200.243 93.265 199.4 93.8796 198.792 96.4725C198.437 95.0743 198.302 93.1672 200.232 90.5124C201.925 88.1699 201.727 87.5332 202.134 84.9375Z" fill="white" fill-opacity="0.7"/>
<path d="M194.532 83.3848C195.658 85.0655 195.463 87.8182 194.377 89.3445C192.641 91.7123 191.798 92.3269 191.19 94.9197C190.835 93.5216 190.7 91.6145 192.63 88.9597C194.323 86.6171 194.125 85.9804 194.532 83.3848Z" fill="white" fill-opacity="0.7"/>
<path d="M198.651 82.9824C200.033 85.0442 199.793 88.4209 198.461 90.2933C196.331 93.1978 195.298 93.9517 194.552 97.1324C194.116 95.4172 193.95 93.0778 196.318 89.8211C198.395 86.9476 198.152 86.1665 198.651 82.9824Z" fill="white" fill-opacity="0.7"/>
<path d="M137.289 63.7892C137.289 63.7892 126.193 66.0521 119.386 70.5782C112.58 75.1043 107.906 98.1116 107.906 98.1116C107.906 98.1116 104.106 98.8659 104.784 101.883C104.784 101.883 111.135 101.152 114.427 106.907C115.23 108.303 115.845 110.083 116.148 112.346C116.148 112.346 119.502 112.165 119.716 109.706C119.716 109.706 122.731 107.156 123.472 102.336C123.49 102.245 123.507 102.162 123.517 102.072C123.517 102.072 123.851 115.243 122.174 120.176L169.127 120.203L178.924 120.176C178.924 120.176 179.849 117.761 179.33 116.161C179.33 116.161 182.776 112.142 179.268 107.285C179.268 107.285 180.044 79.9093 175.584 73.4071C171.124 66.9047 148.716 63.1328 148.716 63.1328L137.289 63.7892Z" fill="url(#paint7_linear_3328_5034)"/>
<g style="mix-blend-mode:multiply">
<path d="M123.417 102.301C122.677 107.121 119.661 109.671 119.661 109.671C119.447 112.13 116.093 112.311 116.093 112.311C115.79 110.048 115.174 108.267 114.372 106.872C116.147 105.424 118.163 103.183 119.331 99.9017C121.695 93.2938 120.188 86.1123 120.081 85.5996C122.007 91.7776 123.06 99.3587 123.417 102.301Z" fill="#3050BB" fill-opacity="0.3"/>
</g>
<g style="mix-blend-mode:multiply">
<path d="M179.214 107.251C179.214 107.251 169.344 102.622 162.351 107.001C162.595 102.496 162.505 92.3825 157.912 83.2734C157.912 83.2734 158.916 101.755 149.996 106.941C141.076 112.127 125.911 111.089 122.12 120.142H178.87C179.434 118.555 179.524 117.193 179.276 116.126C179.276 116.126 182.722 112.526 179.214 107.251Z" fill="#3050BB" fill-opacity="0.3"/>
</g>
<path d="M152.545 114.875C152.545 114.875 162.651 108.896 173.517 111.028C183.202 112.928 181.529 118.851 178.871 120.149H151.709L152.545 114.875Z" fill="#FDB09E"/>
<path d="M152.706 114.953C152.706 114.953 147.865 112.956 143.889 110.599C143.479 110.356 142.976 110.257 142.481 110.322C140.642 110.565 135.964 111.224 132.745 112.04C132.327 112.146 132.052 112.488 132.094 112.855C132.146 113.299 132.302 113.894 132.737 114.375C132.737 114.375 133.636 115.103 134.823 115.555C134.823 115.555 134.436 116.121 134.432 116.387C134.428 116.653 134.901 117.495 135.463 117.674C135.463 117.674 135.302 117.938 135.436 118.364C135.571 118.791 136.111 119.395 136.518 119.439C136.926 119.484 137.665 119.439 137.665 119.439C137.665 119.439 137.373 119.98 137.43 120.34C137.487 120.699 138.232 121.226 138.702 121.297C139.172 121.369 142.352 120.888 142.953 120.683C143.553 120.477 144.721 119.15 144.721 119.15C144.721 119.15 149.707 120.629 153.61 120.13L152.706 114.953Z" fill="#FFC6AD"/>
<path d="M132.523 114.098L137.392 113.299C137.392 113.299 135.72 114.681 134.821 115.563C134.821 115.563 132.838 114.784 132.523 114.098Z" fill="#FDB09E"/>
<path d="M144.72 119.163L142.905 118.725L140.669 120.254C140.669 120.254 142.56 119.005 144.444 119.463L144.72 119.163Z" fill="#FDB09E"/>
<path d="M143.809 110.564C143.809 110.564 142.85 114.818 144.925 116.595C147 118.372 153.611 120.14 153.611 120.14C153.611 120.14 153.17 117.615 152.707 114.963C152.707 114.963 146.652 112.323 143.809 110.564Z" fill="#FDB09E"/>
<path d="M135.497 117.624L139.281 114.787C139.389 114.706 139.555 114.715 139.651 114.806C139.747 114.898 139.737 115.038 139.629 115.119C139.623 115.123 139.617 115.128 139.611 115.131L135.546 117.675C135.529 117.686 135.505 117.683 135.492 117.668C135.48 117.654 135.483 117.635 135.497 117.624Z" fill="#FDB09E"/>
<path d="M137.646 119.432L141.173 116.583C141.279 116.498 141.446 116.501 141.547 116.59C141.647 116.679 141.643 116.82 141.538 116.906C141.532 116.911 141.525 116.916 141.519 116.92L137.683 119.467C137.67 119.475 137.653 119.473 137.644 119.463C137.635 119.454 137.636 119.44 137.646 119.432Z" fill="#FDB09E"/>
<path d="M104.727 101.992L89.9858 117.994L104.377 117.959L116.092 112.455C116.092 112.455 118.664 101.194 104.727 101.992Z" fill="#F49186"/>
<path d="M101.213 117.831C101.111 117.842 91.5932 118.145 91.5932 118.145C91.5932 118.145 90.782 113.658 90.9239 113.681C91.066 113.703 98.3925 112.42 98.7805 112.466C99.1685 112.512 101.971 117.339 101.971 117.339L101.213 117.831Z" fill="#F49186"/>
<path d="M102.678 115.825L100.687 116.504C100.03 116.728 99.6643 117.323 99.8238 117.906C99.9255 118.277 100.358 118.512 100.799 118.436L102.674 118.111L103.377 118.019C103.717 117.975 103.995 117.767 104.089 117.487C104.215 117.112 104.372 116.627 104.377 116.522C104.385 116.345 102.818 112.906 102.818 112.906L102.678 115.825Z" fill="#FDB09E"/>
<path d="M90.8738 112.152L91.327 112.064C91.5522 112.021 91.755 111.917 91.9044 111.768L92.4001 111.274C92.6083 111.067 92.9159 110.95 93.2378 110.956L93.8431 110.967C94.174 110.973 94.4895 110.849 94.6975 110.631L94.9916 110.323C95.2242 110.08 95.5892 109.955 95.9565 109.994L97.1371 110.119C97.3262 110.139 97.5183 110.117 97.6935 110.053L99.1345 109.527C99.1345 109.527 102.791 110.571 102.989 113.978L102.803 115.556C102.759 115.922 102.436 116.221 102.007 116.29L100.567 116.522C100.24 116.574 99.9196 116.407 99.8291 116.136L99.1096 113.984L99.542 116.165C99.6188 116.553 99.3278 116.923 98.8764 117.015L97.7493 117.241C97.2703 117.338 96.7907 117.084 96.6839 116.678L95.971 113.969L96.3928 116.783C96.4487 117.156 96.1366 117.496 95.6955 117.544L94.6345 117.658C94.2626 117.697 93.9117 117.502 93.8081 117.197L92.7543 114.1L93.5078 117.172C93.5817 117.474 93.3702 117.773 93.0209 117.861L92.1134 118.089C91.7175 118.188 91.3005 118.002 91.1741 117.67L89.8709 114.243C89.7456 113.913 89.7526 113.559 89.8906 113.233L90.105 112.728C90.2281 112.438 90.5181 112.22 90.8738 112.152Z" fill="#FFC6AD"/>
<path d="M150.734 64.2547C148.861 69.0742 145.788 75.7085 139.013 75.5684C133.097 75.4462 134.024 69.4588 135.283 66.1825C135.47 65.6956 135.347 65.9706 135.489 65.6479C134.861 62.5868 134.64 59.4352 134.326 56.3245C139.633 54.4075 144.955 52.558 150.234 50.5625C150.254 51.2668 150.258 51.3021 150.262 52.0798C150.266 52.8576 150.25 50.6315 150.261 52.5784C150.271 54.5253 150.346 61.3125 150.734 64.2547Z" fill="#FDB09E"/>
<path d="M135.351 65.9427C135.318 66.1227 135.445 65.7091 135.483 65.6615C134.87 62.5627 134.637 59.4413 134.327 56.321C139.641 54.3935 144.941 52.5762 150.246 50.541C150.246 50.541 150.422 50.6473 150.027 52.9364C149.184 56.2005 144.808 68.4504 135.351 65.9427Z" fill="#FF856A"/>
<path d="M122.69 25.9434C122.429 27.2068 122.177 29.4916 123.382 30.7565C121.032 29.7878 121.382 29.7246 119.487 28.4899C117.431 27.1497 117.964 35.2432 118.49 36.6274C119.015 38.0113 119.928 42.1622 122.515 42.7392C123.706 45.8922 126.228 48.1498 128.571 49.3088C131.776 50.8946 137.39 50.4575 142.493 50.0346C144.678 49.8535 146.768 49.6749 148.537 49.6584C148.862 49.3174 149.166 49.0251 149.458 48.756C149.519 49.2496 149.612 49.7086 149.754 49.8052C150.085 50.0309 150.288 53.0962 150.288 53.0962C150.288 53.0962 151.285 50.233 151.183 48.8158C151.134 48.126 151.098 47.6345 151.075 47.31C151.552 46.8638 152.04 46.3615 152.58 45.6856C153.918 44.0121 154.97 41.0914 155.453 38.8058C155.721 39.612 155.866 40.2095 155.866 40.2095C156.021 37.1275 155.82 35.7183 155.571 35.0845C155.284 34.1763 154.61 33.4843 153.248 33.2923C154.973 30.9828 152.107 27.4188 152.107 27.4188C152.363 28.3572 152.28 29.4656 152.125 30.3613C151.93 29.6339 151.647 28.9425 150.958 28.3032C149.065 25.7467 142.168 25.0731 142.168 25.0731C142.594 25.1869 143.384 25.6968 144.236 26.3151C141.31 26.2861 137.968 26.8884 134.789 27.8888C131.725 28.8533 126.044 26.4926 123.832 25.4787C123.704 25.42 123.567 25.3948 123.435 25.3984C123.082 25.408 122.757 25.6206 122.69 25.9434Z" fill="url(#paint8_linear_3328_5034)"/>
<path d="M148.828 48.0344C146.231 46.1425 145.245 42.3975 147.172 40.5949C144.473 43.1189 136.699 42.5295 136.699 42.5295C136.699 42.5295 138.517 41.8934 138.869 40.3307C138.869 40.3307 130.233 41.9807 128.648 42.9765C128.648 42.9765 128.479 41.5845 130.117 40.3692C127.911 40.5767 126.131 41.019 126.038 41.9037C125.789 44.2733 127.991 57.9937 133.604 61.0847C139.218 64.1759 145.277 58.964 147.62 56.4078C149.964 53.8516 148.865 52.9768 150.118 50.8125C152.072 50.1058 152.869 50.3272 153.167 47.1398C153.465 43.9526 150.169 43.0853 148.828 48.0344Z" fill="#FDB09E"/>
<path d="M115.123 117.957H64.061C63.7524 117.957 63.5024 118.169 63.5024 118.429V119.838C63.5024 120.099 63.7524 120.31 64.061 120.31H115.123C115.432 120.31 115.681 120.099 115.681 119.838V118.429C115.681 118.169 115.432 117.957 115.123 117.957Z" fill="#182960"/>
<path d="M77.1677 85.5781H33.8834C31.9244 85.5781 30.5779 87.2573 31.2894 88.8133L43.9323 116.472C44.3489 117.383 45.3789 117.983 46.5263 117.983H91.3384C92.5625 117.983 93.4038 116.934 92.9594 115.962L79.7617 87.0897C79.345 86.1783 78.3152 85.5781 77.1677 85.5781Z" fill="#6A688F"/>
<path d="M33.6122 86.248C31.6784 86.248 30.3493 87.8924 31.0515 89.4162L43.5328 116.501C43.944 117.394 44.9608 117.981 46.0935 117.981H90.3319C91.5403 117.981 92.371 116.954 91.9322 116.001L78.9034 87.7284C78.4922 86.8358 77.4753 86.248 76.3425 86.248H33.6122Z" fill="url(#paint9_linear_3328_5034)"/>
<g style="mix-blend-mode:overlay" opacity="0.66">
<path d="M63.4444 102.364C64.4833 104.503 63.908 106.729 62.1597 107.336C60.4115 107.943 58.1522 106.701 57.1134 104.562C56.0745 102.423 56.6499 100.197 58.3979 99.5896C60.1463 98.9824 62.4056 100.224 63.4444 102.364Z" fill="#E3EBF7"/>
</g>
<path d="M92.5253 117.957H45.5089C45.2019 117.957 44.9531 118.167 44.9531 118.427V119.84C44.9531 120.1 45.2019 120.31 45.5089 120.31H92.5253C92.8321 120.31 93.0811 120.1 93.0811 119.84V118.427C93.0811 118.167 92.8321 117.957 92.5253 117.957Z" fill="#48466D"/>
<path d="M231.5 122.816H14.2925V120.283H231.5V122.816ZM231.5 122.816H183.331V120.283H231.5V122.816Z" fill="#2C2B4C"/>
<path d="M231.502 122.816H183.333V120.283H231.502V122.816Z" fill="#2C2B4C"/>
<path d="M167.348 118.215H121.558V120.289H167.348V118.215ZM153.225 118.215H167.348V120.289H153.225V118.215Z" fill="#FFDFD4"/>
<path d="M153.226 118.215H167.349V120.289H153.226V118.215Z" fill="#FFDFD4"/>
<defs>
<linearGradient id="paint0_linear_3328_5034" x1="119.015" y1="55.8255" x2="136.538" y2="145.811" gradientUnits="userSpaceOnUse">
<stop offset="0.01" stop-color="#C0F5E4"/>
<stop offset="0.41" stop-color="#ABEDD8"/>
<stop offset="1" stop-color="#83CAB4"/>
</linearGradient>
<linearGradient id="paint1_linear_3328_5034" x1="44.8336" y1="118.057" x2="16.2452" y2="74.7484" gradientUnits="userSpaceOnUse">
<stop stop-color="#48466D"/>
<stop offset="0.41" stop-color="#3D84A8"/>
<stop offset="1" stop-color="#3D84A8"/>
</linearGradient>
<linearGradient id="paint2_linear_3328_5034" x1="46.2021" y1="121.894" x2="24.7368" y2="94.7275" gradientUnits="userSpaceOnUse">
<stop stop-color="#48466D"/>
<stop offset="0.41" stop-color="#6D6B9B"/>
<stop offset="1" stop-color="#3D84A8"/>
</linearGradient>
<linearGradient id="paint3_linear_3328_5034" x1="32.9005" y1="121.402" x2="44.1583" y2="112.685" gradientUnits="userSpaceOnUse">
<stop stop-color="#5B5981"/>
<stop offset="0.41" stop-color="#48466D"/>
<stop offset="1" stop-color="#302E50"/>
</linearGradient>
<linearGradient id="paint4_linear_3328_5034" x1="197.251" y1="102.488" x2="197.238" y2="121.516" gradientUnits="userSpaceOnUse">
<stop stop-color="#F8EDE0"/>
<stop offset="0.41" stop-color="#F8EDE0"/>
<stop offset="1" stop-color="#E7CCAC"/>
</linearGradient>
<linearGradient id="paint5_linear_3328_5034" x1="197.174" y1="107.312" x2="197.247" y2="117.278" gradientUnits="userSpaceOnUse">
<stop stop-color="#3D84A8"/>
<stop offset="0.41" stop-color="#46536D"/>
<stop offset="1" stop-color="#48466D"/>
</linearGradient>
<linearGradient id="paint6_linear_3328_5034" x1="193.486" y1="113.757" x2="200.328" y2="109.577" gradientUnits="userSpaceOnUse">
<stop offset="0.01" stop-color="#46CDCF"/>
<stop offset="0.41" stop-color="#3EBEC0"/>
<stop offset="1" stop-color="#3D84A8"/>
</linearGradient>
<linearGradient id="paint7_linear_3328_5034" x1="152.765" y1="82.926" x2="94.4469" y2="82.5653" gradientUnits="userSpaceOnUse">
<stop stop-color="#5DA4C9"/>
<stop offset="0.41" stop-color="#3D84A8"/>
<stop offset="1" stop-color="#236281"/>
</linearGradient>
<linearGradient id="paint8_linear_3328_5034" x1="154.744" y1="38.0977" x2="121.76" y2="29.9656" gradientUnits="userSpaceOnUse">
<stop stop-color="#5E3434"/>
<stop offset="0.41" stop-color="#4F2C2C"/>
<stop offset="1" stop-color="#3F2323"/>
</linearGradient>
<linearGradient id="paint9_linear_3328_5034" x1="56.1113" y1="84.9008" x2="57.3311" y2="119.305" gradientUnits="userSpaceOnUse">
<stop stop-color="#6A688F"/>
<stop offset="0.41" stop-color="#48466D"/>
<stop offset="1" stop-color="#2C2B4D"/>
</linearGradient>
</defs>
</svg>
