<svg width="50" height="50" viewBox="0 0 50 50" fill="none" xmlns="http://www.w3.org/2000/svg">
<path d="M13.75 7.5C13.5339 7.49995 13.3216 7.55589 13.1336 7.66236C12.9457 7.76883 12.7885 7.9222 12.6775 8.1075L5.17746 20.6075C5.04432 20.8299 4.98363 21.0882 5.00379 21.3467C5.02394 21.6051 5.12395 21.8509 5.28996 22.05L24.04 44.55C24.1573 44.6907 24.3041 44.8038 24.47 44.8815C24.6359 44.9592 24.8168 44.9994 25 44.9994C25.1831 44.9994 25.3641 44.9592 25.53 44.8815C25.6959 44.8038 25.8426 44.6907 25.96 44.55L44.71 22.05C44.876 21.8509 44.976 21.6051 44.9961 21.3467C45.0163 21.0882 44.9556 20.8299 44.8225 20.6075L37.3225 8.1075C37.2114 7.9222 37.0543 7.76883 36.8663 7.66236C36.6783 7.55589 36.466 7.49995 36.25 7.5H13.75ZM8.45746 20L14.4575 10H19.405L15.405 20H8.45746ZM15.395 22.5L21.0625 37.0725L8.91996 22.5H15.395ZM25 40.3L18.0775 22.5H31.9225L25 40.3ZM18.0975 20L22.0975 10H27.9025L31.9025 20H18.0975ZM34.5975 20L30.5975 10H35.5425L41.5425 20H34.5975ZM34.605 22.5H41.08L28.9375 37.0725L34.605 22.5Z" fill="#22C55E"/>
</svg>
