<svg width="33" height="33" viewBox="0 0 33 33" fill="none" xmlns="http://www.w3.org/2000/svg">
<path d="M13.31 18.8237L16.5 16.4038L19.6762 18.8237L18.4662 14.905L21.6562 12.375H17.7512L16.5 8.51125L15.2487 12.375H11.3437L14.52 14.905L13.31 18.8237ZM27.5 13.75C27.5 7.6725 22.5775 2.75 16.5 2.75C10.4225 2.75 5.5 7.6725 5.5 13.75C5.5 16.5413 6.545 19.0712 8.25 21.01V31.625L16.5 28.875L24.75 31.625V21.01C26.523 19.0073 27.5012 16.4247 27.5 13.75ZM16.5 5.5C21.0512 5.5 24.75 9.19875 24.75 13.75C24.75 18.3012 21.0512 22 16.5 22C11.9487 22 8.25 18.3012 8.25 13.75C8.25 9.19875 11.9487 5.5 16.5 5.5ZM16.5 26.125L11 27.5275V23.265C12.6225 24.2 14.4925 24.75 16.5 24.75C18.5075 24.75 20.3775 24.2 22 23.265V27.5275L16.5 26.125Z" fill="white"/>
</svg>
