<svg width="60" height="60" viewBox="0 0 60 60" fill="none" xmlns="http://www.w3.org/2000/svg">
<path d="M50.8052 1.875H53.7452C54.905 1.875 56.0175 2.33559 56.8379 3.15552C57.6583 3.97545 58.1195 5.08761 58.1202 6.2475V9.19C58.1221 16.0425 55.5063 22.637 50.8077 27.625L47.7377 30.885C46.4686 32.2316 45.1371 33.518 43.7477 34.74V47.335C43.7477 48.8725 42.9402 50.295 41.6227 51.085L30.3377 57.8575C30.0815 58.0114 29.7922 58.1018 29.494 58.1212C29.1958 58.1406 28.8972 58.0885 28.6232 57.9691C28.3493 57.8497 28.1078 57.6666 27.919 57.4349C27.7301 57.2033 27.5994 56.9299 27.5377 56.6375L25.1301 45.2075C25.0058 45.1087 24.8888 45.0009 24.7801 44.885L20.1002 39.9L15.1151 35.2175C14.9993 35.1088 14.8915 34.9919 14.7926 34.8675L3.36515 32.46C3.07231 32.3989 2.79834 32.2686 2.56611 32.0801C2.33389 31.8915 2.15015 31.6501 2.03025 31.376C1.91035 31.102 1.85776 30.8032 1.87688 30.5047C1.896 30.2062 1.98627 29.9165 2.14015 29.66L8.91515 18.375C9.70515 17.0575 11.1276 16.25 12.6651 16.25H25.2576C26.4797 14.8622 27.7661 13.5324 29.1127 12.265L32.3727 9.19C37.3594 4.4923 43.9516 1.87581 50.8027 1.875H50.8052ZM34.9451 11.92L31.6852 14.9925C28.617 17.8833 25.887 21.1132 23.5476 24.62L18.0651 32.845L22.7127 37.205C22.7422 37.2321 22.7706 37.2604 22.7977 37.29L27.1552 41.935L35.3751 36.455C38.885 34.1147 42.1174 31.383 45.0102 28.3125L48.0802 25.055C52.1236 20.7623 54.3745 15.0872 54.3727 9.19V6.25C54.3727 6.08424 54.3068 5.92527 54.1896 5.80806C54.0724 5.69085 53.9134 5.625 53.7477 5.625H50.8052C44.9094 5.62532 39.2363 7.87703 34.9451 11.92ZM16.2501 52.5C13.2276 55.5225 6.49765 56.1125 4.39265 56.225C4.31009 56.2302 4.22736 56.218 4.14984 56.1891C4.07231 56.1602 4.00172 56.1154 3.94265 56.0575C3.88474 55.9984 3.83991 55.9278 3.81105 55.8503C3.78219 55.7728 3.76996 55.6901 3.77515 55.6075C3.88765 53.5025 4.47765 46.7725 7.50015 43.75C9.75015 41.5 14.0001 41.5 16.2501 43.75C18.5002 46 18.5002 50.25 16.2501 52.5ZM14.7702 31.03L20.4251 22.5425C21.0002 21.6775 21.6001 20.83 22.2176 20H12.6651C12.5575 20.0001 12.4516 20.0279 12.3579 20.0809C12.2642 20.1339 12.1857 20.2103 12.1301 20.3025L6.71265 29.3325L14.7702 31.03ZM40.0002 37.78C39.1677 38.4 38.3202 38.9975 37.4552 39.575L28.9726 45.23L30.6677 53.2875L39.6977 47.87C39.7899 47.8144 39.8662 47.736 39.9192 47.6423C39.9722 47.5485 40.0001 47.4427 40.0002 47.335V37.78ZM43.7502 20C43.75 20.4926 43.6528 20.9804 43.4641 21.4354C43.2755 21.8905 42.999 22.3039 42.6506 22.6522C42.3021 23.0004 41.8885 23.2766 41.4333 23.4649C40.9781 23.6533 40.4903 23.7502 39.9977 23.75C39.505 23.7498 39.0173 23.6526 38.5622 23.464C38.1071 23.2753 37.6937 22.9989 37.3455 22.6504C36.9973 22.302 36.7211 21.8883 36.5327 21.4331C36.3444 20.978 36.2475 20.4901 36.2477 19.9975C36.248 19.0026 36.6435 18.0486 37.3473 17.3453C38.051 16.6421 39.0053 16.2472 40.0002 16.2475C40.995 16.2478 41.9491 16.6434 42.6523 17.3471C43.3556 18.0508 43.7505 19.0051 43.7502 20Z" fill="#22C55E"/>
</svg>
