<svg width="24" height="24" viewBox="0 0 24 24" fill="none" xmlns="http://www.w3.org/2000/svg">
<path d="M12.0004 12V12.01M14.8284 9.17202C15.5783 9.92213 15.9996 10.9394 15.9996 12C15.9996 13.0607 15.5783 14.0779 14.8284 14.828M17.6574 6.34302C18.4003 7.08589 18.9897 7.96782 19.3917 8.93846C19.7938 9.90909 20.0007 10.9494 20.0007 12C20.0007 13.0506 19.7938 14.0909 19.3917 15.0616C18.9897 16.0322 18.4003 16.9141 17.6574 17.657M9.16843 14.828C8.41855 14.0779 7.99729 13.0607 7.99729 12C7.99729 10.9394 8.41855 9.92213 9.16843 9.17202M6.33743 17.657C5.59452 16.9141 5.00521 16.0322 4.60314 15.0616C4.20108 14.0909 3.99414 13.0506 3.99414 12C3.99414 10.9494 4.20108 9.90909 4.60314 8.93846C5.00521 7.96782 5.59452 7.08589 6.33743 6.34302" stroke="#F3F3F3" stroke-width="2" stroke-linecap="round" stroke-linejoin="round"/>
</svg>
