<svg width="70" height="70" viewBox="0 0 70 70" fill="none" xmlns="http://www.w3.org/2000/svg">
<path d="M14.583 64.1666V40.8333M14.583 40.8333L21.7872 39.3924C26.6019 38.4289 31.5929 38.887 36.1518 40.7108C41.0914 42.686 46.5279 43.0544 51.6888 41.7637L52.313 41.6091C53.1992 41.3879 53.9861 40.8767 54.5484 40.1569C55.1107 39.4371 55.4162 38.55 55.4163 37.6366V16.1495C55.4161 15.618 55.2949 15.0935 55.0618 14.6158C54.8287 14.1381 54.4899 13.7198 54.071 13.3926C53.6522 13.0654 53.1643 12.8379 52.6444 12.7273C52.1245 12.6168 51.5863 12.6261 51.0705 12.7545C46.3122 13.9434 41.3003 13.6026 36.7468 11.7803L36.1518 11.5441C31.5937 9.72104 26.6039 9.263 21.7901 10.2258L14.583 11.6666M14.583 40.8333V32.0833M14.583 11.6666V5.83325M14.583 11.6666V20.4166" stroke="#22C55E" stroke-width="1.5" stroke-linecap="round"/>
</svg>
